<svg width="27" height="21" viewBox="0 0 27 21" fill="none" xmlns="http://www.w3.org/2000/svg">
<path d="M16.6172 11.5508C16.6172 13.2908 15.2224 14.7013 13.5018 14.7013C11.7812 14.7013 10.3864 13.2908 10.3864 11.5508C10.3864 9.81075 11.7812 8.40019 13.5018 8.40019C15.2224 8.40019 16.6172 9.81075 16.6172 11.5508Z" fill="#939393"/>
<path fill-rule="evenodd" clip-rule="evenodd" d="M8.30973 0.964727C8.30973 0.431923 8.74727 0 9.287 0H17.7171C18.2568 0 18.6943 0.431923 18.6943 0.964727V2.09655H26.0227C26.5625 2.09655 27 2.52847 27 3.06128V20.0353C27 20.5681 26.5625 21 26.0227 21H0.977273C0.43754 21 0 20.5681 0 20.0353V3.06128C0 2.52847 0.43754 2.09655 0.977273 2.09655H8.30973V0.964727ZM13.5006 16.7986C16.3683 16.7986 18.6929 14.4476 18.6929 11.5476C18.6929 8.64757 16.3683 6.29664 13.5006 6.29664C10.633 6.29664 8.30832 8.64757 8.30832 11.5476C8.30832 14.4476 10.633 16.7986 13.5006 16.7986Z" fill="#939393"/>
</svg>
