<svg width="25" height="25" viewBox="0 0 25 25" fill="none" xmlns="http://www.w3.org/2000/svg">
<g clip-path="url(#clip0_43_738)">
<path d="M9.0625 18.7502H3.125C1.56979 18.7502 0 17.5689 0 14.9314V9.68141C0.0219033 7.28784 0.918153 4.98486 2.51998 3.20614C4.1218 1.42743 6.31866 0.295713 8.69687 0.0241173C10.0389 -0.0733053 11.3862 0.119306 12.6472 0.588864C13.9082 1.05842 15.0533 1.79392 16.0048 2.74539C16.9562 3.69685 17.6917 4.84198 18.1613 6.10297C18.6309 7.36395 18.8235 8.71124 18.726 10.0533C18.4541 12.4325 17.3214 14.6301 15.5414 16.232C13.7615 17.8339 11.4571 18.7296 9.0625 18.7502ZM20.8333 9.45849H20.8208C20.8208 9.70537 20.8208 9.95224 20.8083 10.2002C20.4062 15.8335 15.2573 20.6022 9.4625 20.8137V20.8293C10.1923 22.0951 11.242 23.1467 12.5065 23.8787C13.7709 24.6108 15.2056 24.9975 16.6667 25.0002H21.875C22.7038 25.0002 23.4987 24.6709 24.0847 24.0849C24.6708 23.4988 25 22.704 25 21.8752V16.6668C24.9985 15.2055 24.6127 13.7702 23.8814 12.505C23.1501 11.2398 22.0989 10.1892 20.8333 9.45849Z" fill="#374957"/>
</g>
<defs>
<clipPath id="clip0_43_738">
<rect width="25" height="25" fill="white"/>
</clipPath>
</defs>
</svg>
