<svg width="25" height="25" viewBox="0 0 25 25" fill="none" xmlns="http://www.w3.org/2000/svg">
<g clip-path="url(#clip0_43_751)">
<path d="M25 16.6668V21.8752C25 22.704 24.6708 23.4988 24.0847 24.0849C23.4987 24.6709 22.7038 25.0002 21.875 25.0002H16.6667C15.2053 24.9987 13.77 24.6129 12.5048 23.8816C11.2396 23.1502 10.189 22.0991 9.45833 20.8335C10.2436 20.8279 11.0262 20.7413 11.7937 20.5752C12.3783 21.306 13.1198 21.896 13.9633 22.3014C14.8069 22.7067 15.7308 22.9171 16.6667 22.9168H21.875C22.1513 22.9168 22.4162 22.8071 22.6116 22.6117C22.8069 22.4164 22.9167 22.1514 22.9167 21.8752V16.6668C22.9164 15.7306 22.7054 14.8065 22.2993 13.9629C21.8932 13.1194 21.3025 12.378 20.5708 11.7939C20.7384 11.0265 20.8263 10.2439 20.8333 9.45849C22.0989 10.1892 23.1501 11.2398 23.8814 12.505C24.6127 13.7702 24.9985 15.2055 25 16.6668ZM18.726 10.0533C18.8235 8.71124 18.6309 7.36395 18.1613 6.10297C17.6917 4.84198 16.9562 3.69685 16.0048 2.74539C15.0533 1.79392 13.9082 1.05842 12.6472 0.588864C11.3862 0.119306 10.0389 -0.0733053 8.69687 0.0241173C6.31866 0.295713 4.1218 1.42743 2.51998 3.20614C0.918153 4.98486 0.0219033 7.28784 0 9.68141L0 14.9314C0 17.5689 1.56979 18.7502 3.125 18.7502H9.0625C11.4571 18.7296 13.7615 17.8339 15.5414 16.232C17.3214 14.6301 18.4541 12.4325 18.726 10.0533V10.0533ZM14.5312 4.21995C15.2708 4.9611 15.8425 5.85245 16.2076 6.83369C16.5728 7.81493 16.723 8.86316 16.6479 9.90745C16.4256 11.7654 15.5318 13.4781 14.1347 14.723C12.7377 15.9679 10.9337 16.6592 9.0625 16.6668H3.125C2.15833 16.6668 2.08333 15.3387 2.08333 14.9314V9.68141C2.09202 7.81097 2.78401 6.00819 4.02908 4.61232C5.27415 3.21646 6.98645 2.32377 8.84375 2.10224C9.01667 2.08974 9.18958 2.08349 9.3625 2.08349C10.3222 2.0826 11.2726 2.27082 12.1595 2.63741C13.0463 3.00399 13.8523 3.54175 14.5312 4.21995Z" fill="#374957"/>
</g>
<defs>
<clipPath id="clip0_43_751">
<rect width="25" height="25" fill="white"/>
</clipPath>
</defs>
</svg>
