<svg width="25" height="25" viewBox="0 0 25 25" fill="none" xmlns="http://www.w3.org/2000/svg">
<g clip-path="url(#clip0_43_753)">
<path d="M24.0846 9.44658L16.1836 1.5445C15.2057 0.569489 13.8812 0.0219727 12.5003 0.0219727C11.1194 0.0219727 9.7948 0.569489 8.81692 1.5445L0.915882 9.44658C0.624658 9.73594 0.393767 10.0802 0.236593 10.4595C0.0794183 10.8387 -0.000912527 11.2454 0.000256723 11.656V21.882C0.000256723 22.7108 0.329497 23.5057 0.915548 24.0917C1.5016 24.6778 2.29646 25.007 3.12526 25.007H21.8753C22.7041 25.007 23.4989 24.6778 24.085 24.0917C24.671 23.5057 25.0003 22.7108 25.0003 21.882V11.656C25.0014 11.2454 24.9211 10.8387 24.7639 10.4595C24.6067 10.0802 24.3759 9.73594 24.0846 9.44658V9.44658ZM15.6253 22.9237H9.37526V18.8257C9.37526 17.9969 9.7045 17.2021 10.2905 16.616C10.8766 16.03 11.6715 15.7007 12.5003 15.7007C13.3291 15.7007 14.1239 16.03 14.71 16.616C15.296 17.2021 15.6253 17.9969 15.6253 18.8257V22.9237ZM22.9169 21.882C22.9169 22.1583 22.8072 22.4232 22.6118 22.6186C22.4165 22.8139 22.1515 22.9237 21.8753 22.9237H17.7086V18.8257C17.7086 17.4444 17.1599 16.1197 16.1831 15.1429C15.2064 14.1661 13.8816 13.6174 12.5003 13.6174C11.1189 13.6174 9.79416 14.1661 8.81741 15.1429C7.84066 16.1197 7.29192 17.4444 7.29192 18.8257V22.9237H3.12526C2.84899 22.9237 2.58404 22.8139 2.38869 22.6186C2.19334 22.4232 2.08359 22.1583 2.08359 21.882V11.656C2.08456 11.3799 2.1942 11.1153 2.3888 10.9195L10.2898 3.02054C10.877 2.43609 11.6718 2.10798 12.5003 2.10798C13.3287 2.10798 14.1235 2.43609 14.7107 3.02054L22.6117 10.9226C22.8056 11.1177 22.9151 11.381 22.9169 11.656V21.882Z" fill="#374957"/>
</g>
<defs>
<clipPath id="clip0_43_753">
<rect width="25" height="25" fill="white"/>
</clipPath>
</defs>
</svg>
