<svg width="25" height="25" viewBox="0 0 25 25" fill="none" xmlns="http://www.w3.org/2000/svg">
<g clip-path="url(#clip0_43_722)">
<path d="M12.5 15.6162C10.7741 15.6162 9.375 17.0153 9.375 18.7412V24.9912H15.625V18.7412C15.625 17.0153 14.2259 15.6162 12.5 15.6162Z" fill="#374957"/>
<path d="M17.7083 18.7418V24.9918H21.875C23.6009 24.9918 25 23.5926 25 21.8668V12.3657C25.0002 11.8246 24.7899 11.3046 24.4135 10.9157L15.5615 1.34591C13.9996 -0.344033 11.3634 -0.447793 9.67349 1.11412C9.59321 1.18834 9.51587 1.26563 9.4417 1.34591L0.605225 10.9126C0.217432 11.303 -0.00014641 11.8311 7.39174e-08 12.3814V21.8668C7.39174e-08 23.5926 1.39912 24.9918 3.125 24.9918H7.29165V18.7418C7.31113 15.9013 9.60444 13.5818 12.3733 13.515C15.2349 13.446 17.6865 15.805 17.7083 18.7418Z" fill="#374957"/>
<path d="M12.5 15.6162C10.7741 15.6162 9.375 17.0153 9.375 18.7412V24.9912H15.625V18.7412C15.625 17.0153 14.2259 15.6162 12.5 15.6162Z" fill="#374957"/>
</g>
<defs>
<clipPath id="clip0_43_722">
<rect width="25" height="25" fill="white"/>
</clipPath>
</defs>
</svg>
