<svg width="10" height="10" viewBox="0 0 10 10" fill="none" xmlns="http://www.w3.org/2000/svg">
<path d="M7.29167 0.79834C6.82248 0.805638 6.36353 0.936612 5.96115 1.17804C5.55878 1.41946 5.22724 1.76279 5 2.17334C4.77277 1.76279 4.44123 1.41946 4.03885 1.17804C3.63648 0.936612 3.17752 0.805638 2.70834 0.79834C1.96039 0.830836 1.25571 1.15803 0.748246 1.70844C0.240778 2.25884 -0.0282264 2.98773 2.96614e-06 3.73584C2.96614e-06 5.63042 1.99417 7.69959 3.66667 9.10251C4.04009 9.41631 4.51223 9.58835 5 9.58835C5.48777 9.58835 5.95991 9.41631 6.33334 9.10251C8.00584 7.69959 10 5.63042 10 3.73584C10.0282 2.98773 9.75923 2.25884 9.25176 1.70844C8.74429 1.15803 8.03961 0.830836 7.29167 0.79834ZM5.79792 8.46501C5.57458 8.65308 5.29198 8.75622 5 8.75622C4.70802 8.75622 4.42543 8.65308 4.20209 8.46501C2.06125 6.66876 0.833336 4.94542 0.833336 3.73584C0.804853 3.20864 0.985989 2.69156 1.33724 2.29738C1.68849 1.9032 2.18135 1.6639 2.70834 1.63167C3.23532 1.6639 3.72819 1.9032 4.07943 2.29738C4.43068 2.69156 4.61182 3.20864 4.58334 3.73584C4.58334 3.84635 4.62723 3.95233 4.70538 4.03047C4.78352 4.10861 4.8895 4.15251 5 4.15251C5.11051 4.15251 5.21649 4.10861 5.29463 4.03047C5.37277 3.95233 5.41667 3.84635 5.41667 3.73584C5.38819 3.20864 5.56932 2.69156 5.92057 2.29738C6.27182 1.9032 6.76468 1.6639 7.29167 1.63167C7.81866 1.6639 8.31152 1.9032 8.66277 2.29738C9.01402 2.69156 9.19515 3.20864 9.16667 3.73584C9.16667 4.94542 7.93875 6.66876 5.79792 8.46334V8.46501Z" fill="#CDD3D9"/>
</svg>
