<svg width="10" height="10" viewBox="0 0 10 10" fill="none" xmlns="http://www.w3.org/2000/svg">
<g clip-path="url(#clip0_314_538)">
<path d="M7.29167 0.79834C6.82248 0.805638 6.36353 0.936612 5.96115 1.17804C5.55878 1.41946 5.22724 1.76279 5 2.17334C4.77277 1.76279 4.44123 1.41946 4.03885 1.17804C3.63648 0.936612 3.17752 0.805638 2.70834 0.79834C1.96039 0.830836 1.25571 1.15803 0.748246 1.70844C0.240778 2.25884 -0.0282264 2.98773 2.96603e-06 3.73584C2.96603e-06 5.63042 1.99417 7.69959 3.66667 9.10251C4.04009 9.41631 4.51223 9.58835 5 9.58835C5.48777 9.58835 5.95991 9.41631 6.33334 9.10251C8.00584 7.69959 10 5.63042 10 3.73584C10.0282 2.98773 9.75923 2.25884 9.25176 1.70844C8.74429 1.15803 8.03961 0.830836 7.29167 0.79834Z" fill="#FF7E8A"/>
</g>
<defs>
<clipPath id="clip0_314_538">
<rect width="10" height="10" fill="white"/>
</clipPath>
</defs>
</svg>
