<svg width="20" height="20" viewBox="0 0 20 20" fill="none" xmlns="http://www.w3.org/2000/svg">
<g clip-path="url(#clip0_49_980)">
<path d="M9.96488 20.0063L9.38398 19.5083C8.58316 18.8378 1.5907 12.7988 1.5907 8.38151C1.5907 3.75658 5.33996 0.00732422 9.96488 0.00732422C14.5898 0.00732422 18.3391 3.75658 18.3391 8.38151C18.3391 12.7989 11.3466 18.8378 10.5491 19.5117L9.96488 20.0063ZM9.96488 1.81807C6.34171 1.82217 3.40558 4.7583 3.40148 8.38147C3.40148 11.1565 7.70351 15.5897 9.96488 17.6187C12.2263 15.5889 16.5283 11.1532 16.5283 8.38147C16.5242 4.7583 13.5881 1.82221 9.96488 1.81807Z" fill="black"/>
<path d="M9.96496 11.7004C8.13168 11.7004 6.64551 10.2143 6.64551 8.38098C6.64551 6.5477 8.13168 5.06152 9.96496 5.06152C11.7982 5.06152 13.2844 6.5477 13.2844 8.38098C13.2844 10.2143 11.7983 11.7004 9.96496 11.7004ZM9.96496 6.72121C9.04832 6.72121 8.30523 7.4643 8.30523 8.38094C8.30523 9.29758 9.04832 10.0407 9.96496 10.0407C10.8816 10.0407 11.6247 9.29758 11.6247 8.38094C11.6247 7.4643 10.8816 6.72121 9.96496 6.72121Z" fill="black"/>
</g>
<defs>
<clipPath id="clip0_49_980">
<rect width="20" height="20" fill="white"/>
</clipPath>
</defs>
</svg>
