<svg width="36" height="36" viewBox="0 0 36 36" fill="none" xmlns="http://www.w3.org/2000/svg">
<rect x="0.5" y="0.5" width="35" height="35" rx="17.5" fill="white"/>
<rect x="0.5" y="0.5" width="35" height="35" rx="17.5" stroke="#EEEEEE"/>
<path d="M18 25.5C15.9062 25.5 14.1328 24.7734 12.6797 23.3203C11.2266 21.8672 10.5 20.0937 10.5 18C10.5 15.9062 11.2266 14.1328 12.6797 12.6797C14.1328 11.2266 15.9062 10.5 18 10.5C19.0781 10.5 20.1094 10.7225 21.0937 11.1675C22.0781 11.6125 22.9219 12.2494 23.625 13.0781V11.4375C23.625 11.1719 23.715 10.9494 23.895 10.77C24.075 10.5906 24.2975 10.5006 24.5625 10.5C24.8275 10.4994 25.0503 10.5894 25.2309 10.77C25.4115 10.9506 25.5012 11.1731 25.5 11.4375V16.125C25.5 16.3906 25.41 16.6134 25.23 16.7934C25.05 16.9734 24.8275 17.0631 24.5625 17.0625H19.875C19.6094 17.0625 19.3869 16.9725 19.2075 16.7925C19.0281 16.6125 18.9381 16.39 18.9375 16.125C18.9369 15.86 19.0269 15.6375 19.2075 15.4575C19.3881 15.2775 19.6106 15.1875 19.875 15.1875H22.875C22.375 14.3125 21.6916 13.625 20.8247 13.125C19.9578 12.625 19.0162 12.375 18 12.375C16.4375 12.375 15.1094 12.9219 14.0156 14.0156C12.9219 15.1094 12.375 16.4375 12.375 18C12.375 19.5625 12.9219 20.8906 14.0156 21.9844C15.1094 23.0781 16.4375 23.625 18 23.625C19.0625 23.625 20.0353 23.3556 20.9184 22.8169C21.8016 22.2781 22.485 21.5553 22.9687 20.6484C23.0937 20.4297 23.2697 20.2775 23.4966 20.1919C23.7234 20.1062 23.9537 20.1022 24.1875 20.1797C24.4375 20.2578 24.6172 20.4219 24.7266 20.6719C24.8359 20.9219 24.8281 21.1562 24.7031 21.375C24.0625 22.625 23.1484 23.625 21.9609 24.375C20.7734 25.125 19.4531 25.5 18 25.5Z" fill="#3E3E3E"/>
</svg>
