<svg width="26" height="26" viewBox="0 0 26 26" fill="none" xmlns="http://www.w3.org/2000/svg">
<g clip-path="url(#clip0_43_734)">
<path d="M21.4396 3.55194C16.8381 -1.12872 9.31341 -1.1929 4.63275 3.40859C-0.0479063 8.01008 -0.112094 15.5348 4.4894 20.2155C4.54658 20.2737 4.60437 20.3312 4.66277 20.3882L8.92291 24.3242C11.2004 26.5522 14.838 26.5613 17.1266 24.3447L21.4396 20.3591C26.0806 15.7178 26.0806 8.19315 21.4396 3.55194ZM17.3578 13.0359H14.1165V16.2772C14.1165 16.8738 13.6328 17.3576 13.0361 17.3576C12.4394 17.3576 11.9557 16.8738 11.9557 16.2772V13.0359H8.7144C8.11772 13.0359 7.63398 12.5522 7.63398 11.9555C7.63398 11.3588 8.11772 10.8751 8.7144 10.8751H11.9557V7.63379C11.9557 7.03711 12.4394 6.55337 13.0361 6.55337C13.6328 6.55337 14.1165 7.03711 14.1165 7.63379V10.8751H17.3578C17.9545 10.8751 18.4382 11.3588 18.4382 11.9555C18.4382 12.5522 17.9545 13.0359 17.3578 13.0359Z" fill="#374957"/>
</g>
<defs>
<clipPath id="clip0_43_734">
<rect width="26" height="26" fill="white"/>
</clipPath>
</defs>
</svg>
