<svg width="26" height="26" viewBox="0 0 26 26" fill="none" xmlns="http://www.w3.org/2000/svg">
<path d="M8.85585 24.318C11.1337 26.5464 14.7717 26.5555 17.0607 24.3386L21.3743 20.3523C26.0473 15.7416 26.0977 8.21572 21.487 3.54283C16.8762 -1.13006 9.35041 -1.18054 4.67751 3.43019C4.63973 3.46747 4.60216 3.50505 4.56488 3.54283C-0.0766766 8.1851 -0.0760672 15.7111 4.5662 20.3527C4.5758 20.3623 4.58545 20.3719 4.5951 20.3815L8.85585 24.318ZM6.09279 5.07078C9.88239 1.26448 16.0401 1.25092 19.8464 5.04052C23.6527 8.83012 23.6662 14.9878 19.8766 18.7941L15.5716 22.7728C14.1012 24.1567 11.805 24.1482 10.3449 22.7534L6.09279 18.8244C2.29486 15.0264 2.29481 8.86882 6.09269 5.07084C6.09274 5.07084 6.09279 5.07078 6.09279 5.07078ZM7.56671 11.9476C7.56671 11.3508 8.05051 10.867 8.64729 10.867H11.889V7.62528C11.889 7.0285 12.3728 6.54471 12.9696 6.54471C13.5664 6.54471 14.0502 7.0285 14.0502 7.62528V10.867H17.2919C17.8887 10.867 18.3725 11.3508 18.3725 11.9476C18.3725 12.5444 17.8887 13.0282 17.2919 13.0282H14.0502V16.2699C14.0502 16.8667 13.5664 17.3505 12.9696 17.3505C12.3728 17.3505 11.889 16.8667 11.889 16.2699V13.0282H8.64729C8.05051 13.0282 7.56671 12.5444 7.56671 11.9476Z" fill="#374957"/>
</svg>
