<svg width="29" height="30" viewBox="0 0 29 30" fill="none" xmlns="http://www.w3.org/2000/svg">
<mask id="mask0_43_697" style="mask-type:alpha" maskUnits="userSpaceOnUse" x="0" y="0" width="29" height="30">
<rect width="28.0645" height="30" fill="#D9D9D9"/>
</mask>
<g mask="url(#mask0_43_697)">
<path d="M11.1089 20C8.98454 20 7.18665 19.2135 5.71521 17.6406C4.24378 16.0677 3.50806 14.1458 3.50806 11.875C3.50806 9.60417 4.24378 7.68229 5.71521 6.10938C7.18665 4.53646 8.98454 3.75 11.1089 3.75C13.2332 3.75 15.0311 4.53646 16.5025 6.10938C17.974 7.68229 18.7097 9.60417 18.7097 11.875C18.7097 12.7917 18.5732 13.6562 18.3004 14.4688C18.0275 15.2812 17.6573 16 17.1895 16.625L23.7379 23.625C23.9523 23.8542 24.0595 24.1458 24.0595 24.5C24.0595 24.8542 23.9523 25.1458 23.7379 25.375C23.5235 25.6042 23.2507 25.7188 22.9193 25.7188C22.588 25.7188 22.3152 25.6042 22.1008 25.375L15.5524 18.375C14.9677 18.875 14.2954 19.2708 13.5353 19.5625C12.7752 19.8542 11.9664 20 11.1089 20ZM11.1089 17.5C12.5706 17.5 13.813 16.9531 14.8362 15.8594C15.8594 14.7656 16.371 13.4375 16.371 11.875C16.371 10.3125 15.8594 8.98438 14.8362 7.89062C13.813 6.79688 12.5706 6.25 11.1089 6.25C9.64717 6.25 8.40473 6.79688 7.38154 7.89062C6.35836 8.98438 5.84677 10.3125 5.84677 11.875C5.84677 13.4375 6.35836 14.7656 7.38154 15.8594C8.40473 16.9531 9.64717 17.5 11.1089 17.5Z" fill="#434343"/>
</g>
</svg>
