<svg width="20" height="20" viewBox="0 0 20 20" fill="none" xmlns="http://www.w3.org/2000/svg">
<circle cx="10" cy="10" r="10" fill="#E2A0A1"/>
<path d="M9.76074 15.1465C7.43164 15.1465 5.76172 13.8574 5.71777 12.0117H7.94434C7.98828 12.8027 8.75 13.3301 9.77539 13.3301C10.8301 13.3301 11.5918 12.7295 11.5771 11.8799C11.5918 11.0156 10.8154 10.4004 9.57031 10.4004H8.58887V8.77441H9.57031C10.6104 8.77441 11.3428 8.20312 11.3428 7.36816C11.3428 6.5625 10.7275 6.00586 9.79004 6.00586C8.85254 6.00586 8.07617 6.5332 8.04688 7.33887H5.9375C5.9668 5.50781 7.62207 4.24805 9.79004 4.24805C12.002 4.24805 13.4814 5.55176 13.4668 7.23633C13.4814 8.42285 12.6465 9.27246 11.46 9.47754V9.56543C13.0127 9.75586 13.877 10.708 13.8623 12.0264C13.877 13.8428 12.1484 15.1465 9.76074 15.1465Z" fill="white"/>
</svg>
